<?xml version="1.0" encoding="utf-8"?>
<!-- Generator: Adobe Illustrator 16.0.0, SVG Export Plug-In . SVG Version: 6.00 Build 0)  -->
<!DOCTYPE svg PUBLIC "-//W3C//DTD SVG 1.1//EN" "http://www.w3.org/Graphics/SVG/1.1/DTD/svg11.dtd">

<svg version="1.1" id="Capa_1" xmlns="http://www.w3.org/2000/svg" xmlns:xlink="http://www.w3.org/1999/xlink" x="0px" y="0px"
	 width="250" height="465.309px" viewBox="485.309 0 465.309 465.309" enable-background="new 485.309 0 465.309 465.309"
	 xml:space="preserve">
<circle fill="#00acb3" class="roller" cx="631.229" cy="173.778" r="52.313"/>
<path fill="#00acb3" d="M868.929,324.021l-325.427-85.403V31.739c0-14.848-12.033-26.885-26.885-26.885c-14.849,0-26.884,12.037-26.884,26.885
	v404.688c0,14.849,12.035,26.886,26.884,26.886c14.852,0,26.885-12.037,26.885-26.886V294.206l236.127,61.97v80.254
	c0,14.849,12.036,26.886,26.886,26.886c14.848,0,26.885-12.037,26.885-26.886v-66.144l21.881,5.741
	c14.365,3.771,29.062-4.814,32.83-19.182C891.88,342.482,883.292,327.788,868.929,324.021z"/>
<path fill="#00acb3" class="bodymove" d="M935.974,282.184c-2.035-1.561-50.166-38.424-85.633-54.78l-116.31-53.643v-65.582v-0.391
	c-6.607,2.708-13.842,4.212-21.433,4.212c-6.224,0-12.205-1.02-17.802-2.875v76.466c-3.219,6.014-12.329,24.5-11.959,40.195
	c-0.117,10.596,6.221,20.643,16.686,24.693l108.807,42.141c6.946,2.689,14.698,2.287,21.321-1.088
	c1.408-0.717,2.732-1.555,3.974-2.496l60.256,28.492v121.623c0,14.444,11.711,26.155,26.153,26.155
	c14.443,0,26.158-11.711,26.158-26.155V302.926C946.192,294.801,942.417,287.135,935.974,282.184z"/>
<g class="move">
	<circle fill="#FFFFFF" cx="712.553" cy="57.588" r="28.75"/>
	<path fill="#00acb3" d="M768.386,57.583c0-30.809-25.012-55.798-55.938-55.991c-30.808,0.193-55.729,25.222-55.729,56.079
		c0,24.48,15.705,45.236,37.568,52.895v0.143c5.597,1.855,11.578,2.875,17.802,2.875C743.182,113.583,768.386,88.512,768.386,57.583
		z M692.322,57.672c0-11.314,9.17-20.486,20.483-20.486c11.316,0,20.486,9.172,20.486,20.486c0,11.316-9.17,20.488-20.486,20.488
		C701.492,78.161,692.322,68.989,692.322,57.672z"/>
</g>
<style type="text/css">
.roller {
  
  animation: dance 2s infinite alternate;
}
.move {
  
  animation: move 2s infinite alternate;
}
.bodymove {
  
  animation: bodymove 2s infinite alternate;
  transform-origin: right top;
}
@keyframes dance {
  100% {
    transform: rotate(0.8deg);
  }
}

@keyframes move {
  100% {
    position:relative;
    top:30px;
     transform: rotate(3deg);
  }
}
@keyframes bodymove {
  100% {
    position:relative;
    top:30px;
     transform: rotate(1.5deg);
  }
}</style>
</svg>
